<svg width="1600" height="420" viewBox="0 0 1600 420" fill="none" xmlns="http://www.w3.org/2000/svg">
  <defs>
    <linearGradient id="bg" x1="120" y1="40" x2="1480" y2="380" gradientUnits="userSpaceOnUse">
      <stop stop-color="#081A2B"/>
      <stop offset="1" stop-color="#16344E"/>
    </linearGradient>
    <linearGradient id="accent" x1="1090" y1="60" x2="1410" y2="300" gradientUnits="userSpaceOnUse">
      <stop stop-color="#FF8A3D"/>
      <stop offset="1" stop-color="#D94F16"/>
    </linearGradient>
  </defs>
  <rect width="1600" height="420" rx="28" fill="url(#bg)"/>
  <circle cx="1310" cy="126" r="92" fill="#0F2740" opacity="0.65"/>
  <circle cx="1410" cy="236" r="128" fill="#102A43" opacity="0.8"/>
  <path d="M1160 232C1200 168 1274 132 1342 136C1414 140 1476 192 1500 260C1438 292 1352 286 1288 246C1236 214 1192 232 1160 232Z" fill="url(#accent)"/>
  <path d="M1204 170C1236 138 1280 122 1318 128C1308 166 1280 198 1240 214C1202 228 1168 220 1148 208C1160 196 1182 188 1204 170Z" fill="#FFB06B"/>
  <path d="M1328 266C1368 300 1428 314 1486 306C1458 346 1408 370 1350 372C1294 374 1240 352 1210 322C1258 314 1298 296 1328 266Z" fill="#FFB06B"/>
  <rect x="84" y="76" width="234" height="40" rx="20" fill="#0E2943"/>
  <text x="114" y="102" fill="#FFB06B" font-family="Arial, Helvetica, sans-serif" font-size="20" font-weight="700">30-DAY PUBLIC CHALLENGE</text>
  <text x="84" y="178" fill="#F8FAFC" font-family="Georgia, 'Times New Roman', serif" font-size="54" font-weight="700">30-Day OpenClaw</text>
  <text x="84" y="238" fill="#F8FAFC" font-family="Georgia, 'Times New Roman', serif" font-size="54" font-weight="700">AutoTrader Challenge</text>
  <text x="84" y="286" fill="#C4D4E3" font-family="Arial, Helvetica, sans-serif" font-size="26">Watch a crawfish-sized 5000 HKD account navigate 30 public market days in U.S. stocks.</text>
  <text x="84" y="330" fill="#8FB3CF" font-family="Arial, Helvetica, sans-serif" font-size="22">Real position snapshots. Daily review. Continuous public tracking.</text>
  <rect x="84" y="352" width="186" height="32" rx="16" fill="#F3E7D7"/>
  <text x="112" y="374" fill="#16344E" font-family="Arial, Helvetica, sans-serif" font-size="18" font-weight="700">Starting Capital: 5000 HKD</text>
</svg>
