<svg width="1280" height="640" viewBox="0 0 1280 640" fill="none" xmlns="http://www.w3.org/2000/svg">
  <defs>
    <linearGradient id="bg" x1="96" y1="48" x2="1184" y2="592" gradientUnits="userSpaceOnUse">
      <stop stop-color="#091A2B"/>
      <stop offset="1" stop-color="#173552"/>
    </linearGradient>
    <linearGradient id="accent" x1="864" y1="120" x2="1106" y2="344" gradientUnits="userSpaceOnUse">
      <stop stop-color="#FF9448"/>
      <stop offset="1" stop-color="#D5531C"/>
    </linearGradient>
  </defs>
  <rect width="1280" height="640" rx="28" fill="url(#bg)"/>
  <circle cx="982" cy="180" r="110" fill="#0E2943" opacity="0.6"/>
  <circle cx="1078" cy="318" r="150" fill="#102A43" opacity="0.9"/>
  <path d="M876 336C920 250 1010 198 1092 204C1174 210 1238 274 1252 360C1178 398 1078 396 998 354C942 324 904 330 876 336Z" fill="url(#accent)"/>
  <path d="M920 232C952 190 1000 166 1048 168C1038 214 1010 254 968 278C928 298 882 294 856 278C872 260 894 250 920 232Z" fill="#FFB977"/>
  <path d="M1034 388C1080 430 1140 446 1198 438C1166 486 1108 518 1040 520C974 522 914 498 880 462C934 454 988 432 1034 388Z" fill="#FFB977"/>
  <rect x="78" y="82" width="272" height="44" rx="22" fill="#0E2943"/>
  <text x="110" y="111" fill="#FFB06B" font-family="Arial, Helvetica, sans-serif" font-size="22" font-weight="700">30-DAY OPENCLAW CHALLENGE</text>
  <text x="78" y="214" fill="#F8FAFC" font-family="Georgia, 'Times New Roman', serif" font-size="70" font-weight="700">OpenClaw</text>
  <text x="78" y="292" fill="#F8FAFC" font-family="Georgia, 'Times New Roman', serif" font-size="70" font-weight="700">AutoTrader</text>
  <text x="78" y="370" fill="#F8FAFC" font-family="Georgia, 'Times New Roman', serif" font-size="70" font-weight="700">Challenge</text>
  <text x="78" y="436" fill="#C4D4E3" font-family="Arial, Helvetica, sans-serif" font-size="28">A public 30-day live trading experiment starting from 5000 HKD.</text>
  <text x="78" y="482" fill="#8FB3CF" font-family="Arial, Helvetica, sans-serif" font-size="24">Real snapshots. Daily review. U.S. stocks. A crawfish-sized account in public.</text>
  <rect x="78" y="528" width="202" height="34" rx="17" fill="#F3E7D7"/>
  <text x="108" y="551" fill="#16344E" font-family="Arial, Helvetica, sans-serif" font-size="19" font-weight="700">Starting Capital: 5000 HKD</text>
</svg>
